<?xml version="1.0" standalone="no"?>
<!DOCTYPE svg PUBLIC "-//W3C//DTD SVG 20010904//EN"
 "http://www.w3.org/TR/2001/REC-SVG-20010904/DTD/svg10.dtd">
<svg version="1.0" xmlns="http://www.w3.org/2000/svg"
 width="512.000000pt" height="512.000000pt" viewBox="0 0 512.000000 512.000000"
 preserveAspectRatio="xMidYMid meet">
<metadata>
Created by potrace 1.14, written by Peter Selinger 2001-2017
</metadata>
<g transform="translate(0.000000,512.000000) scale(0.100000,-0.100000)"
fill="#000000" stroke="none">
<path d="M1830 3420 c-200 -38 -404 -204 -496 -404 -33 -73 -64 -201 -64 -270
0 -130 69 -385 147 -541 74 -148 236 -376 361 -507 80 -83 218 -208 332 -299
129 -104 391 -249 448 -249 35 0 263 123 368 198 208 150 414 345 545 517 205
269 312 499 354 758 43 271 -76 536 -315 695 -135 90 -195 107 -385 107 -141
0 -154 -2 -225 -29 -111 -43 -187 -92 -266 -173 -40 -40 -76 -73 -81 -73 -5 0
-38 30 -73 66 -83 84 -159 136 -257 175 -71 28 -90 31 -213 34 -74 2 -155 0
-180 -5z"/>
</g>
</svg>
